<?xml version="1.0" encoding="utf-8"?>
<!-- Generator: Adobe Illustrator 25.2.1, SVG Export Plug-In . SVG Version: 6.00 Build 0)  -->
<svg version="1.1" id="Layer_1" xmlns="http://www.w3.org/2000/svg" xmlns:xlink="http://www.w3.org/1999/xlink" x="0px" y="0px"
	 viewBox="0 0 1080 1080" style="enable-background:new 0 0 1080 1080;" xml:space="preserve">
<style type="text/css">
	.st0{fill:#FFFFE3;}
	.st1{fill:#B11226;}
</style>
<rect x="-0.1" y="0" class="st0" width="1080" height="1080"/>
<g>
	<g>
		<g>
			<path class="st1" d="M219.73,825.15h-2.62c-1.39-4.47-3.58-10.57-6.57-18.3l-8.39-21.63c-2.61-6.69-4.42-10.86-5.44-12.52
				c-1.02-1.66-2.02-2.78-3-3.37c-0.98-0.59-2.35-0.96-4.13-1.11c-0.74-0.06-1.11-0.32-1.11-0.8c0-0.56,0.37-0.84,1.11-0.84h23.27
				c1.45,0,2.18,0.25,2.18,0.75c0,0.65-0.47,0.98-1.42,0.98c-3.91,0-5.86,1.67-5.86,5.02c0,0.8,0.18,2.07,0.53,3.82
				c0.35,1.75,0.97,3.89,1.84,6.44c0.87,2.55,2.75,7.77,5.64,15.65c2.89,7.89,4.73,12.74,5.53,14.54l9.5-26.33
				c2.72-7.46,4.09-12.15,4.09-14.08c0-3.11-1.92-4.83-5.77-5.15c-0.77-0.06-1.15-0.34-1.15-0.84c0-0.33,0.14-0.54,0.42-0.64
				c0.28-0.1,1.1-0.15,2.46-0.15h14.83c1.33,0,2.14,0.04,2.42,0.11c0.28,0.07,0.42,0.29,0.42,0.64c0,0.53-0.58,0.89-1.73,1.07
				c-2.22,0.33-3.89,1.13-5,2.42c-1.11,1.29-2.18,2.83-3.2,4.62c-1.02,1.79-3.75,8.92-8.19,21.38
				C228.82,801.2,225.27,810.64,219.73,825.15z"/>
			<path class="st1" d="M255.17,765.6l8.1,0.18l12.41-0.18c1.48,0,2.23,0.3,2.23,0.89c0,0.44-0.4,0.73-1.2,0.84
				c-3.29,0.42-5.34,1.6-6.15,3.55c-0.81,1.95-1.22,9.18-1.22,21.67c0,4.59,0.12,9.76,0.36,15.5c0.24,5.74,0.5,9.18,0.8,10.3
				c0.3,1.13,0.86,2.04,1.69,2.75c0.83,0.71,2.37,1.21,4.62,1.51c0.74,0.09,1.11,0.37,1.11,0.84c0,0.53-0.34,0.8-1.02,0.8
				l-11.03-0.09l-9.39,0.13c-1.04,0-1.56-0.3-1.56-0.89c0-0.62,0.41-0.93,1.24-0.93c2.75-0.06,4.37-0.98,4.84-2.75
				c0.47-1.78,0.71-7.45,0.71-17.01c0-9.24-0.08-16.71-0.24-22.43c-0.16-5.71-0.64-9.21-1.44-10.48c-0.8-1.27-2.31-2.07-4.53-2.4
				c-0.83-0.15-1.24-0.49-1.24-1.02C254.24,765.86,254.55,765.6,255.17,765.6z"/>
			<path class="st1" d="M315.43,825.15h-2.62c-1.39-4.47-3.58-10.57-6.57-18.3l-8.39-21.63c-2.61-6.69-4.42-10.86-5.44-12.52
				c-1.02-1.66-2.02-2.78-3-3.37c-0.98-0.59-2.35-0.96-4.13-1.11c-0.74-0.06-1.11-0.32-1.11-0.8c0-0.56,0.37-0.84,1.11-0.84h23.27
				c1.45,0,2.18,0.25,2.18,0.75c0,0.65-0.47,0.98-1.42,0.98c-3.91,0-5.86,1.67-5.86,5.02c0,0.8,0.18,2.07,0.53,3.82
				c0.35,1.75,0.97,3.89,1.84,6.44c0.87,2.55,2.75,7.77,5.64,15.65c2.89,7.89,4.73,12.74,5.53,14.54l9.5-26.33
				c2.72-7.46,4.09-12.15,4.09-14.08c0-3.11-1.92-4.83-5.77-5.15c-0.77-0.06-1.15-0.34-1.15-0.84c0-0.33,0.14-0.54,0.42-0.64
				c0.28-0.1,1.1-0.15,2.46-0.15h14.83c1.33,0,2.14,0.04,2.42,0.11c0.28,0.07,0.42,0.29,0.42,0.64c0,0.53-0.58,0.89-1.73,1.07
				c-2.22,0.33-3.89,1.13-5,2.42c-1.11,1.29-2.18,2.83-3.2,4.62c-1.02,1.79-3.75,8.92-8.19,21.38
				C324.52,801.2,320.97,810.64,315.43,825.15z"/>
			<path class="st1" d="M366.74,764.89h2.05c3.31,6.78,7.87,18.37,13.69,34.77c3.75,10.51,6.32,16.96,7.72,19.34
				c1.39,2.38,3.63,3.71,6.72,3.97c0.98,0.09,1.47,0.41,1.47,0.98c0,0.41-0.25,0.62-0.75,0.62l-0.62-0.05
				c-2.72-0.24-6.19-0.35-10.39-0.35c-6.46,0-10.6,0.1-12.43,0.31c-0.92,0-1.38-0.27-1.38-0.8c0-0.38,0.34-0.62,1.02-0.71
				c2.52-0.24,4.26-0.67,5.22-1.29c0.96-0.62,1.44-1.6,1.44-2.93c0-1.27-0.9-4.46-2.71-9.55l-2.62-7.64
				c-1.54,0-8.42,0.09-20.65,0.27c-3.08,8.2-4.62,13.37-4.62,15.52c0,1.82,0.76,3.16,2.29,4.04c1.52,0.88,3.03,1.36,4.51,1.45
				c1.1,0.09,1.64,0.42,1.64,0.99c0,0.23-0.18,0.45-0.53,0.65c-4.74-0.21-7.59-0.31-8.57-0.31c-4.97,0-8.32,0.06-10.04,0.18
				c-0.95,0-1.42-0.27-1.42-0.8c0-0.47,0.41-0.77,1.24-0.89c3.4-0.44,6.01-2.75,7.82-6.93c1.81-4.17,4.62-11.68,8.44-22.51
				C358.77,783.36,362.59,773.92,366.74,764.89z M364.97,774.57c-2.76,5.63-5.97,13.8-9.65,24.51c3.05-0.15,5.24-0.22,6.57-0.22
				l12.48,0.22c-1.09-3.08-2.63-7.16-4.61-12.26C367.33,780.75,365.74,776.67,364.97,774.57z"/>
			<path class="st1" d="M420.77,768.48c-2.31-0.12-3.94-0.18-4.89-0.18c-6.4,0-11.04,1.34-13.91,4.01
				c-2.87,2.67-4.55,5.05-5.02,7.13c-0.15,0.74-0.54,1.11-1.19,1.11c-0.29,0-0.57-0.14-0.84-0.43c0.15-3.53,0.73-8.28,1.73-14.27
				c1.42-0.03,2.32-0.04,2.71-0.04c2.31,0,5.4,0.12,9.28,0.35c4.18,0.24,10.57,0.36,19.18,0.36c8.82,0,14.57-0.1,17.23-0.31
				c2.43-0.24,5.76-0.35,9.99-0.35c0.35,2.13,0.59,4.35,0.71,6.66c0.18,2.64,0.36,4.49,0.53,5.55c0.03,0.24,0.04,0.49,0.04,0.75
				c0,0.71-0.31,1.07-0.93,1.07c-0.38,0-0.7-0.13-0.95-0.38c-0.25-0.25-0.82-1.09-1.71-2.51c-1.54-2.4-3.14-4.21-4.8-5.44
				s-3.51-2.02-5.55-2.38c-2.04-0.35-6.18-0.59-12.4-0.71c-0.36,4.47-0.53,9.58-0.53,15.32c0,19.01,0.41,30.21,1.22,33.62
				c0.81,3.4,3.72,5.11,8.73,5.11c1.21,0,1.82,0.25,1.82,0.75c0,0.59-0.58,0.89-1.73,0.89H412.2c-0.71,0-1.07-0.28-1.07-0.84
				c0-0.56,0.7-0.84,2.09-0.84c2.34,0,4.23-0.66,5.66-1.98c1.44-1.32,2.26-3.1,2.49-5.35c0.22-2.25,0.33-8.75,0.33-19.49
				C421.7,786.48,421.39,777.42,420.77,768.48z"/>
			<path class="st1" d="M481.09,764.89h2.05c3.31,6.78,7.87,18.37,13.69,34.77c3.75,10.51,6.32,16.96,7.72,19.34
				c1.39,2.38,3.63,3.71,6.72,3.97c0.98,0.09,1.47,0.41,1.47,0.98c0,0.41-0.25,0.62-0.75,0.62l-0.62-0.05
				c-2.72-0.24-6.19-0.35-10.39-0.35c-6.46,0-10.6,0.1-12.43,0.31c-0.92,0-1.38-0.27-1.38-0.8c0-0.38,0.34-0.62,1.02-0.71
				c2.52-0.24,4.26-0.67,5.22-1.29c0.96-0.62,1.44-1.6,1.44-2.93c0-1.27-0.9-4.46-2.71-9.55l-2.62-7.64
				c-1.54,0-8.42,0.09-20.65,0.27c-3.08,8.2-4.62,13.37-4.62,15.52c0,1.82,0.76,3.16,2.29,4.04c1.52,0.88,3.03,1.36,4.51,1.45
				c1.1,0.09,1.64,0.42,1.64,0.99c0,0.23-0.18,0.45-0.53,0.65c-4.74-0.21-7.59-0.31-8.57-0.31c-4.97,0-8.32,0.06-10.04,0.18
				c-0.95,0-1.42-0.27-1.42-0.8c0-0.47,0.41-0.77,1.24-0.89c3.4-0.44,6.01-2.75,7.82-6.93c1.81-4.17,4.62-11.68,8.44-22.51
				C473.12,783.36,476.94,773.92,481.09,764.89z M479.32,774.57c-2.76,5.63-5.97,13.8-9.65,24.51c3.05-0.15,5.24-0.22,6.57-0.22
				l12.48,0.22c-1.09-3.08-2.63-7.16-4.61-12.26C481.68,780.75,480.09,776.67,479.32,774.57z"/>
			<path class="st1" d="M549.69,769.19c0.8-0.8,1.33-1.63,1.6-2.49c0.24-0.71,0.58-1.07,1.02-1.07c0.24,0,0.5,0.15,0.8,0.44
				c0.21,1.07,0.5,3.21,0.89,6.44l1.07,8.35c0,0.53-0.33,0.8-0.98,0.8c-0.36,0-0.67-0.3-0.93-0.89c-1.57-3.88-3.89-7.11-6.97-9.68
				c-3.08-2.55-6.44-3.82-10.08-3.82c-3.58,0-6.28,1.08-8.1,3.24c-1.82,2.16-2.73,4.46-2.73,6.88c0,2.96,0.99,5.23,2.98,6.79
				c1.98,1.57,6.07,3.35,12.26,5.33c4.56,1.42,7.97,2.8,10.24,4.13c2.27,1.33,4.17,3.2,5.71,5.6c1.54,2.4,2.31,4.97,2.31,7.73
				c0,4.68-1.94,8.87-5.82,12.57c-3.88,3.7-8.63,5.55-14.26,5.55c-5.06,0-10.15-1.58-15.28-4.75c-1.01,0.83-1.66,1.81-1.95,2.93
				c-0.24,0.95-0.62,1.42-1.15,1.42c-0.47,0-0.81-0.61-1.02-1.82c-0.21-1.21-0.64-6.96-1.29-17.23c0.12-0.35,0.43-0.53,0.93-0.53
				c0.44,0,0.8,0.33,1.07,0.98c4.56,11.46,10.92,17.19,19.1,17.19c4.06,0,7.23-1.22,9.53-3.66s3.44-5.25,3.44-8.42
				c0-2.19-0.62-4.2-1.84-6.04c-1.23-1.83-2.86-3.32-4.88-4.44c-2.03-1.12-5.23-2.38-9.62-3.77c-5.63-1.81-9.45-3.52-11.48-5.13
				c-2.03-1.61-3.52-3.43-4.46-5.46c-0.95-2.03-1.42-3.99-1.42-5.88c0-3.94,1.78-7.43,5.35-10.48c3.57-3.05,7.94-4.57,13.12-4.57
				c1.95,0,4,0.31,6.15,0.93C545.1,766.97,547.35,767.92,549.69,769.19z"/>
			<path class="st1" d="M597.15,765.6l8.1,0.18l12.41-0.18c1.48,0,2.23,0.3,2.23,0.89c0,0.44-0.4,0.73-1.2,0.84
				c-3.29,0.42-5.34,1.6-6.15,3.55c-0.81,1.95-1.22,9.18-1.22,21.67c0,4.59,0.12,9.76,0.36,15.5c0.24,5.74,0.5,9.18,0.8,10.3
				c0.3,1.13,0.86,2.04,1.69,2.75c0.83,0.71,2.37,1.21,4.62,1.51c0.74,0.09,1.11,0.37,1.11,0.84c0,0.53-0.34,0.8-1.02,0.8
				l-11.03-0.09l-9.39,0.13c-1.04,0-1.56-0.3-1.56-0.89c0-0.62,0.41-0.93,1.24-0.93c2.75-0.06,4.37-0.98,4.84-2.75
				c0.47-1.78,0.71-7.45,0.71-17.01c0-9.24-0.08-16.71-0.24-22.43c-0.16-5.71-0.64-9.21-1.44-10.48c-0.8-1.27-2.31-2.07-4.53-2.4
				c-0.83-0.15-1.24-0.49-1.24-1.02C596.22,765.86,596.53,765.6,597.15,765.6z"/>
			<path class="st1" d="M646.31,766.04c2.99,6.49,5.78,12.22,8.36,17.2c3.11,5.96,5.53,10.9,7.27,14.84
				c1.73,3.94,3.76,7.84,6.07,11.69c6.13-10.16,13.25-24.74,21.34-43.73l17.68,0.05c0.62,0.09,0.93,0.36,0.93,0.82
				c0,0.46-0.36,0.71-1.07,0.78c-3.14,0.27-5.23,0.9-6.28,1.89c-1.05,0.99-1.7,2.66-1.95,5c-0.25,2.34-0.49,6.69-0.73,13.06
				c-0.24,6.37-0.36,11.66-0.36,15.9c0,8.14,0.06,12.89,0.18,14.23c0.12,1.35,0.62,2.42,1.51,3.22c0.89,0.8,2.62,1.38,5.2,1.73
				c0.74,0.12,1.11,0.4,1.11,0.84c0,0.44-0.46,0.67-1.38,0.67l-17.27-0.04h-4.53c-1.01,0-1.51-0.24-1.51-0.71
				c0-0.41,0.34-0.67,1.02-0.75c2.49-0.33,4.14-0.78,4.95-1.38c0.81-0.59,1.42-1.65,1.82-3.18c0.4-1.53,0.6-5.33,0.6-11.4
				l0.84-21.33l0.44-10.53c0-0.8-0.12-1.2-0.36-1.2c-0.36,0-0.65,0.24-0.89,0.71l-8.8,17.38c-5.63,11.11-9.08,18.22-10.36,21.33
				l-2.76,6.71c-0.86,2.04-1.38,3.16-1.56,3.36c-0.18,0.19-0.39,0.29-0.62,0.29c-0.36,0-0.65-0.39-0.89-1.15
				c-0.53-1.84-3.27-7.67-8.22-17.51c-2.58-5.54-5.67-11.87-9.27-18.98c-3.6-7.11-5.55-10.82-5.85-11.13s-0.52-0.47-0.67-0.47
				c-0.3,0-0.45,0.37-0.45,1.11l-0.49,26.91l-0.13,8.88c0,4.71,0.64,7.79,1.93,9.24c1.29,1.45,3.13,2.17,5.53,2.17
				c1.54,0,2.31,0.33,2.31,0.98c0,0.47-0.37,0.71-1.11,0.71l-0.93-0.04l-2.89,0.04l-6.26-0.04c-2.72,0-6.23,0.15-10.52,0.44
				c-0.35-0.24-0.53-0.47-0.53-0.71c0-0.59,0.52-0.9,1.55-0.93c2.96-0.09,5.14-1.07,6.53-2.93c1.39-1.87,2.09-6.04,2.09-12.53
				l-0.09-7.82l0.62-19.82c0-4.62-0.68-7.78-2.04-9.49c-1.36-1.7-3.36-2.72-6-3.04c-1.13-0.14-1.69-0.45-1.69-0.91
				c0-0.52,0.41-0.78,1.24-0.78c0.44,0,0.98,0.02,1.6,0.04L646.31,766.04z"/>
			<path class="st1" d="M729.18,796.06c0,1.33-0.09,3.33-0.27,6c-0.09,1.3-0.13,2.62-0.13,3.95c0,1.01,0.05,3.17,0.15,6.51
				c0.1,3.33,0.31,5.41,0.62,6.24c0.31,0.83,0.99,1.63,2.04,2.4c1.05,0.77,2.18,1.18,3.4,1.24c1.36,0.09,2.04,0.4,2.04,0.93
				c0,0.42-0.21,0.66-0.62,0.73c-0.42,0.07-1.98,0.11-4.71,0.11l-12.21-0.04c-3.43,0-5.26-0.05-5.48-0.16
				c-0.22-0.1-0.33-0.3-0.33-0.6c0-0.47,0.56-0.83,1.69-1.07c1.98-0.44,3.37-1.14,4.15-2.09c0.78-0.95,1.27-2.98,1.44-6.1
				c0.18-3.12,0.27-6.72,0.27-10.81l-0.13-11.85l0.13-12.78c0-4.53-0.31-7.42-0.93-8.68c-0.62-1.26-1.84-2.05-3.64-2.37
				c-1.95-0.35-2.93-0.78-2.93-1.29s0.44-0.75,1.33-0.75l8.79,0.04l14.12-0.09c9.3,0,15.55,1.45,18.76,4.35
				c3.21,2.9,4.82,6.52,4.82,10.86c0,5.17-2.1,9.06-6.31,11.66c-4.2,2.6-10.52,3.9-18.96,3.9
				C734.24,796.33,731.87,796.24,729.18,796.06z M729.18,794.29c4.35,0.15,6.82,0.22,7.42,0.22c3.02,0,5.86-0.52,8.53-1.55
				c2.66-1.03,4.61-2.9,5.84-5.59c1.23-2.69,1.84-5.35,1.84-7.98c0-3.34-1.13-6.17-3.4-8.49c-2.27-2.32-6.34-3.48-12.24-3.48
				c-3.05,0-5.71,0.33-7.99,0.98c-0.03,1.06-0.04,1.73-0.04,2l0.18,10.2l-0.18,10.86C729.13,791.98,729.15,792.93,729.18,794.29z"/>
			<path class="st1" d="M816.04,766.57c0.86,3.32,1.7,7.96,2.53,13.94c-0.14,0.24-0.3,0.36-0.47,0.36c-0.2,0-0.42-0.12-0.66-0.36
				c-2.04-3.29-4-5.79-5.87-7.51c-1.87-1.72-3.74-2.94-5.62-3.66c-1.88-0.72-5.12-1.09-9.71-1.09c-4.33,0-7.75,0.25-10.26,0.75
				c-0.24,0.3-0.36,0.84-0.36,1.64c0,0.21-0.03,0.58-0.09,1.11c-0.3,2.36-0.44,8.78-0.44,19.24c0,0.44,0.03,1.06,0.09,1.86
				c2.25,0.09,3.79,0.13,4.62,0.13c3.73,0,6.44-0.56,8.11-1.67c1.67-1.12,3.13-3.52,4.38-7.21c0.21-0.62,0.5-0.94,0.88-0.94
				c0.56,0,0.84,0.43,0.84,1.29l-0.18,1.78c-0.24,2.34-0.36,4.76-0.36,7.25c0,4.03,0.07,7.67,0.22,10.9c0,1.01-0.27,1.51-0.81,1.51
				c-0.4,0-0.67-0.35-0.81-1.07c-0.62-3.49-1.93-6.01-3.92-7.55c-1.99-1.54-6.31-2.31-12.97-2.31c-0.09,2.16-0.13,5.66-0.13,10.48
				c0,6.25,0.22,10.21,0.67,11.9c0.44,1.69,1.51,3.03,3.2,4.02c1.69,0.99,4.55,1.49,8.58,1.49c11.52,0,18.96-3.97,22.31-11.9
				c0.41-0.98,0.83-1.47,1.27-1.47c0.47,0,0.7,0.33,0.7,0.98c0,0.35-0.07,0.74-0.22,1.15c-0.18,0.56-0.61,2.66-1.29,6.31
				c-0.15,0.77-0.71,3.08-1.69,6.93l-18.61-0.04c-2.66,0-6.58-0.11-11.75-0.33c-5.17-0.22-9.74-0.34-13.72-0.35
				c-3.98-0.02-6.06-0.1-6.24-0.24c-0.18-0.15-0.27-0.31-0.27-0.49c0-0.59,0.49-0.89,1.47-0.89c3.29,0,5.45-0.87,6.48-2.62
				c1.04-1.75,1.55-5.99,1.55-12.74l-0.04-9.1l0.13-8.52c0-1.71-0.1-4.96-0.29-9.74c-0.19-4.78-0.37-7.51-0.53-8.19
				c-0.16-0.68-0.62-1.35-1.38-2.02c-0.75-0.67-2.42-1.34-5-2.02c-0.77-0.21-1.15-0.53-1.15-0.98c0-0.53,0.52-0.8,1.55-0.8
				l9.06,0.49c3.2,0.15,11.06,0.22,23.58,0.22C811.66,766.53,815.86,766.54,816.04,766.57z"/>
			<path class="st1" d="M860.05,789.95c1.45-1.75,3.42-4.39,5.91-7.93c2.49-3.54,3.97-5.81,4.44-6.82c0.47-1.01,0.71-1.91,0.71-2.71
				c0-1.3-0.57-2.3-1.71-3c-1.14-0.7-2.37-1.09-3.71-1.18c-1.27-0.09-1.91-0.41-1.91-0.98c0-0.5,0.92-0.75,2.75-0.75h18.61
				c1.24,0,2,0.04,2.29,0.13c0.28,0.09,0.42,0.31,0.42,0.67c0,0.5-0.56,0.78-1.69,0.84c-2.72,0.12-5.25,1.04-7.57,2.76
				c-2.33,1.72-5.57,5.4-9.75,11.04c-4.17,5.65-6.5,8.94-6.97,9.89c8.62,12.89,14.7,21.25,18.25,25.07
				c3.55,3.82,6.82,5.79,9.81,5.91c1.07,0.06,1.6,0.39,1.6,0.98c0,0.5-0.56,0.75-1.69,0.75c-0.47,0-1.69-0.06-3.64-0.18
				c-2.78-0.18-5.39-0.27-7.82-0.27c-4.15,0-8.1,0.09-11.86,0.27c-0.47,0.03-0.95,0.04-1.42,0.04c-1.42,0-2.13-0.25-2.13-0.75
				c0-0.59,0.38-0.89,1.15-0.89c3.76,0,5.64-1.17,5.64-3.51c0-2.46-4.35-9.36-13.06-20.71c-0.95,0.89-3.32,4.1-7.13,9.62
				c-3.8,5.53-5.71,9-5.71,10.42c0,1.01,0.72,1.9,2.15,2.67c1.44,0.77,3.26,1.24,5.48,1.42c1.09,0.09,1.64,0.38,1.64,0.87
				c0,0.55-0.52,0.82-1.55,0.82l-1.64-0.04l-9.06-0.22c-5.33,0-8.99,0.1-10.97,0.31c-1.24,0-1.87-0.29-1.87-0.86
				c0-0.55,0.46-0.82,1.38-0.82c2.01,0,3.86-0.37,5.53-1.11c1.67-0.74,3.08-1.76,4.22-3.04c1.14-1.29,3.66-4.7,7.57-10.22
				c3.91-5.53,6.62-9.49,8.13-11.89c-10.18-14.87-16.45-23.27-18.81-25.18c-2.35-1.91-5.03-2.95-8.02-3.13
				c-0.8-0.06-1.2-0.35-1.2-0.86c0-0.52,0.74-0.78,2.22-0.78h23.36c1.12,0,1.8,0.05,2.02,0.15c0.22,0.1,0.33,0.33,0.33,0.69
				c0,0.3-0.13,0.51-0.4,0.64c-0.27,0.13-1.24,0.24-2.93,0.33c-1.01,0.09-1.87,0.41-2.58,0.96c-0.71,0.55-1.07,1.18-1.07,1.89
				c0,0.86,1.42,3.47,4.26,7.82S857.59,787.05,860.05,789.95z"/>
		</g>
	</g>
	<path class="st1" d="M527.53,704.67C444.63,575,358.49,403.24,274.75,272.26c25.14,0,48.52-0.17,71.9,0.27
		c2.3,0.04,118.52,217.92,120.66,220.65c0-60.26,0-160.96,0-220.23c20.7,0,40.75,0,61.47,0c0,129.52,0,301.2,0,430.8
		C528.37,704.05,527.95,704.36,527.53,704.67z"/>
	<path class="st1" d="M613.58,359.12c0,3.67,0,27.88,0,31.03c-0.01,63.94,0.01,150.55-0.14,214.5c-0.01,3.32-0.63,7.16-2.36,9.88
		c-18.35,28.92-36.98,57.66-55.55,86.43c-0.68,1.05-1.58,1.96-3.41,4.2c0-101.67,0-245.48,0-346.04
		C572.42,359.12,592.51,359.12,613.58,359.12z"/>
	<g>
		<g>
			<path class="st1" d="M820.94,393.52l-37.99-29.73l-62.07,159.71L684.98,468l-48.57,107.27l-0.1-113.79
				c0,0,19.72-36.72,30.87-65.79l7.95-20.77l36.25,55.71c10.5-26.97,20.9-53.65,31.38-80.56l0.75-1.9l-46.21-4.24l103.3-89.08
				L820.94,393.52z"/>
		</g>
	</g>
	<circle class="st1" cx="582.85" cy="304.79" r="31.83"/>
</g>
</svg>
